<mxfile host="app.diagrams.net" modified="2021-04-04T14:45:53.681Z" agent="5.0 (Windows NT 10.0; Win64; x64) AppleWebKit/537.36 (KHTML, like Gecko) Chrome/89.0.4389.114 Safari/537.36" etag="sm7Cg6u7IjzELbjRSCy2" version="14.4.8" type="github">
  <diagram id="OW-78qsmoFpDF32o1zbE" name="Page-1">
    <mxGraphModel dx="-454" dy="677" grid="1" gridSize="10" guides="1" tooltips="1" connect="1" arrows="1" fold="1" page="1" pageScale="1" pageWidth="827" pageHeight="1169" math="0" shadow="0">
      <root>
        <mxCell id="0" />
        <mxCell id="1" parent="0" />
        <mxCell id="Xg8C_r_gaFxSlDtuHyMV-1" value="" style="ellipse;whiteSpace=wrap;html=1;aspect=fixed;fillColor=#000000;" vertex="1" parent="1">
          <mxGeometry x="1356" y="80" width="21" height="21" as="geometry" />
        </mxCell>
        <mxCell id="Xg8C_r_gaFxSlDtuHyMV-2" value="" style="endArrow=classic;html=1;exitX=0.5;exitY=1;exitDx=0;exitDy=0;" edge="1" parent="1" source="Xg8C_r_gaFxSlDtuHyMV-1" target="Xg8C_r_gaFxSlDtuHyMV-4">
          <mxGeometry width="50" height="50" relative="1" as="geometry">
            <mxPoint x="1079" y="286" as="sourcePoint" />
            <mxPoint x="1367" y="187" as="targetPoint" />
          </mxGeometry>
        </mxCell>
        <mxCell id="Xg8C_r_gaFxSlDtuHyMV-3" style="edgeStyle=orthogonalEdgeStyle;rounded=0;orthogonalLoop=1;jettySize=auto;html=1;" edge="1" parent="1" source="Xg8C_r_gaFxSlDtuHyMV-4" target="Xg8C_r_gaFxSlDtuHyMV-6">
          <mxGeometry relative="1" as="geometry" />
        </mxCell>
        <mxCell id="Xg8C_r_gaFxSlDtuHyMV-4" value="Click on the field wanted to sort" style="rounded=1;whiteSpace=wrap;html=1;fillColor=#dae8fc;strokeColor=#6c8ebf;" vertex="1" parent="1">
          <mxGeometry x="1303" y="135" width="131" height="68" as="geometry" />
        </mxCell>
        <mxCell id="Xg8C_r_gaFxSlDtuHyMV-10" style="edgeStyle=orthogonalEdgeStyle;rounded=0;orthogonalLoop=1;jettySize=auto;html=1;entryX=0.5;entryY=0;entryDx=0;entryDy=0;" edge="1" parent="1" source="Xg8C_r_gaFxSlDtuHyMV-6" target="Xg8C_r_gaFxSlDtuHyMV-9">
          <mxGeometry relative="1" as="geometry" />
        </mxCell>
        <mxCell id="Xg8C_r_gaFxSlDtuHyMV-6" value="Click on the order wanted to sort" style="rounded=1;whiteSpace=wrap;html=1;fillColor=#dae8fc;strokeColor=#6c8ebf;" vertex="1" parent="1">
          <mxGeometry x="1303" y="233" width="131" height="68" as="geometry" />
        </mxCell>
        <mxCell id="Xg8C_r_gaFxSlDtuHyMV-9" value="" style="ellipse;whiteSpace=wrap;html=1;aspect=fixed;fillColor=#000000;" vertex="1" parent="1">
          <mxGeometry x="1358" y="340" width="21" height="21" as="geometry" />
        </mxCell>
      </root>
    </mxGraphModel>
  </diagram>
</mxfile>
